<svg height="440" viewBox="0 0 1440 440" width="1440" xmlns="http://www.w3.org/2000/svg"><g fill="none" fill-rule="evenodd" opacity=".7" transform="translate(-879.522887 -193)"><path d="m793.293878 193.208695c86.998321 85.715779 231.017322 118.024878 432.057012 96.927296 301.55954-31.646372 458.51839 85.105498 704.75935 55.247057 164.16064-19.905628 332.16891-54.776104 504.0248-104.611427l66.69696 294.286231c-241.91893 33.774443-442.96339 47.523498-603.13337 41.247165-240.25496-9.414499-269.56272-92.630598-658.37327-34.718781-259.207034 38.607878-407.884194 84.022756-446.031482 136.244635z" fill="#0275d8" fill-opacity=".3" transform="matrix(-1 0 0 1 3294.125882 0)"/><path d="m879.522887 193.208695c86.998321 85.715779 231.017323 118.024878 432.057013 96.927296 301.55954-31.646372 458.51839 85.105498 704.75935 55.247057 164.16064-19.905628 332.1689-134.776104 504.0248-344.61142708l66.69696 294.28623108c-183.78066 184.748969-355.75597 273.985287-515.92595 267.708954-240.25497-9.414499-356.77014-79.092387-745.58069-21.18057-259.20703 38.607878-407.884195 68.449552-446.031483 89.525021z" fill="#0275d8" fill-opacity=".3"/><g fill="#fff" fill-opacity=".5"><path d="m166 393.129669s139.060541 125.726734 352.959269 122.89458c142.530367-1.881767 260.535794-85.972034 450.520236-70.224116 128.291855 10.634833 281.559565 107.488802 424.823645 105.340926 146.32119-2.195394 299.56421-152.157004 522.38461-158.01139 222.8204-5.854385 414.83529 188.452295 592.9734 193.118697 306.04019 8.021268 517.31745-157.783297 522.38461-140.448233v364.920206l-2866.04577-28.823246z" opacity=".2"/><path d="m0 581.893646s405.11865-309.975292 765.552567-302.960093c287.070783 5.590378 246.096383 170.77091 399.800533 190.066447 153.70416 19.295537 162.34012-90.288345 310.81453-81.296847 148.4744 8.991498 206.16303 142.661002 345.10893 143.895241 135.36143 1.197938 249.4737-178.665216 465.91204-184.409874s280.34579 121.363838 374.70366 167.647812c146.74919 71.967042 204.15351 83.819373 204.15351 83.819373v96.99669l-2866.04577 15.697804z" opacity=".4"/></g></g></svg>