<?xml version="1.0" encoding="UTF-8"?>
<svg width="230px" height="162px" viewBox="0 0 230 162" version="1.1" xmlns="http://www.w3.org/2000/svg" xmlns:xlink="http://www.w3.org/1999/xlink">
    <!-- Generator: Sketch 50.2 (55047) - http://www.bohemiancoding.com/sketch -->
    <title>Shape</title>
    <desc>Created with Sketch.</desc>
    <defs></defs>
    <g id="Page-1" stroke="none" stroke-width="1" fill="none" fill-rule="evenodd" fill-opacity="0.15">
        <g id="cite-icon" fill="#4A90E2" fill-rule="nonzero">
            <path d="M85.2,31 C59.3,38.9 45.7,56.4 46.8,81.2 C63.2,85.7 79,99.3 79,119.6 L79,124.1 C79,145.5 63.8,161.9 40.6,161.9 C15.8,161.9 0,142.7 0,112.3 L0,106.7 C0,68.3 10.2,41.8 28.2,24.3 C42.9,9 64.9,-1.77635684e-14 81.2,-1.77635684e-14 C93,-1.77635684e-14 98.7,6.8 98.7,15.8 C98.7,23.7 93.1,28.8 85.2,31 Z M216,31 C190.1,38.9 176.5,56.4 177.6,81.2 C194,85.7 209.8,99.3 209.8,119.6 L209.8,124.1 C209.8,145.5 194.6,161.9 171.4,161.9 C146.6,161.9 130.8,142.7 130.8,112.3 L130.8,106.7 C130.8,68.3 141,41.8 158.4,24.3 C173.7,9 195.7,-1.77635684e-14 211.5,-1.77635684e-14 C223.3,-1.77635684e-14 229.6,6.8 229.6,15.8 C229.6,23.7 223.9,28.8 216,31 Z" id="Shape"></path>
        </g>
    </g>
</svg>