<svg height="300pt" viewBox="0 0 300 300" width="300pt" xmlns="http://www.w3.org/2000/svg"><path d="m0 150v150h300v-123.1c0-116.1-.1-123.3-1.7-124.5-1.7-1.3-1.7-1.4.2-.7 2.1.7 2.1.5-.9-1.7-1.3-1-1.7-1-1.2-.3.4.7.2 1.3-.3 1.3-.6 0-1.1-.5-1.1-1.1s-.9-.8-2.2-.4c-1.4.4-1.8.3-1.1-.2s.9-1.4.3-2.2c-.4-.8-.6-2.1-.2-2.9.3-1 .1-1.3-.6-.8-.7.4-1.5 0-1.8-.9-.5-1.2-.9-1.3-2-.4-1.2 1-1.3.8-.8-.6.5-1.3.4-1.6-.4-1.1-.9.5-.9 0-.2-2.1.8-2.3.8-2.5-.2-1.2-1.2 1.4-1.5 1.4-3.3-.3-2-1.9-2-1.9 0-1.2 2.1.8 2.1.6-.9-1.6-1.3-1-1.7-1-1.2-.3.4.7.2 1.3-.3 1.3-.6 0-1.1-.5-1.1-1.1s-.9-.8-2.2-.4c-1.4.4-1.8.3-1.1-.2s.9-1.4.3-2.2c-.4-.8-.6-2.1-.2-2.9.3-1 .1-1.3-.6-.8-.7.4-1.5 0-1.8-.9-.5-1.2-.9-1.3-2-.4-1.2 1-1.3.8-.8-.6.5-1.3.4-1.6-.4-1.1-.9.5-.9 0-.2-2.1.8-2.3.8-2.5-.2-1.2-1.2 1.4-1.5 1.4-3.3-.3-2-1.9-2-1.9 0-1.2 2.1.8 2.1.6-.9-1.6-1.3-1-1.7-1-1.2-.3.4.7.2 1.3-.3 1.3-.6 0-1.1-.5-1.1-1.1s-.9-.8-2.2-.4c-1.4.4-1.8.3-1.1-.2s.9-1.4.3-2.2c-.4-.8-.6-2.1-.2-2.9.3-1 .1-1.3-.6-.8-.7.4-1.5 0-1.8-.9-.5-1.2-.9-1.3-2-.4-1.2 1-1.3.8-.8-.6.5-1.3.4-1.6-.4-1.1-.9.5-.9 0-.2-2.1.8-2.3.8-2.5-.2-1.2-1.2 1.4-1.5 1.4-3.3-.3-2-1.9-2-1.9 0-1.2 2.1.8 2.1.6-.9-1.6-1.3-1-1.7-1-1.2-.3 1 1.8-.2 1.6-2-.2-1.4-1.3-16.5-1.5-124-1.5h-122.4v150zm125.2-65.9c18.1 3.8 29.2 15.9 30.5 33.2 1.2 16.2-4.2 31.3-14.5 40.8-10.5 9.7-24.1 13.9-44.6 13.9h-11.2l-2.3 19.2c-1.2 10.6-2.5 20.8-2.8 22.5l-.5 3.3h-14.9c-8.2 0-14.9-.2-14.9-.4s3.6-29.9 8-66c4.4-36.2 8-66.1 8-66.7 0-1.3 52.6-1.2 59.2.2zm124.7 1.1c0 1.3-.6 6.3-1.2 11.3l-1.2 9-25 .5-25 .5-1.7 14c-.9 7.7-1.9 15.5-2.2 17.2l-.5 3.3h41.7l-.5 4.2c-.3 2.4-1.1 7.7-1.7 11.8l-1.1 7.5-20.8.3c-16.4.2-20.7.5-20.7 1.6 0 .7-1.3 12.2-3 25.4-1.6 13.3-3 24.4-3 24.7s-6.9.5-15.3.5h-15.3l8.3-66.8c4.5-36.7 8.2-66.8 8.3-67 0-.1 18-.2 40-.2h40zm-156 21c0 .2-1.3 9.9-2.8 21.5l-2.7 21.3h10.5c12.3 0 17.3-1.7 21.3-7.1 3.7-4.9 4.8-9.2 4.8-17.9 0-6.3-.4-8.3-2.3-11.1-3.6-5.4-7.7-6.9-18.9-6.9-5.4 0-9.8.1-9.9.2zm167.9-90.5c.7.3 1.6.2 1.9-.1.4-.3-.2-.6-1.3-.5-1.1 0-1.4.3-.6.6zm16 16c.7.3 1.6.2 1.9-.1.4-.3-.2-.6-1.3-.5-1.1 0-1.4.3-.6.6zm16 16c.7.3 1.6.2 1.9-.1.4-.3-.2-.6-1.3-.5-1.1 0-1.4.3-.6.6z"/></svg>